# xmcd
#
# Track frame offsets: 
#        150
#        17716
#        35579
#        63126
#
# Disc length: 1062 seconds
#
# Revision: 1
# Processed by: cddbd v1.5.2PL0 Copyright (c) Steve Scherf et al.
# Submitted via: ExactAudioCopy v1.1
#
DISCID=29042404
DTITLE=Mr. Big - The Drill Song (Daddy, Brother, Lover, Little Boy) 
DYEAR=1991
DGENRE=Hard Rock
TTITLE0=The Drill Song (Daddy, Brother, Lover, Little Boy)
TTITLE1=Road To Run
TTITLE2=Addicted To That Rush (LIVE)
TTITLE3=Strike Like Lightning
EXTD=YEAR: 1991
EXTT0=
EXTT1=
EXTT2=
EXTT3=
PLAYORDER=
